<svg xmlns="http://www.w3.org/2000/svg" xmlns:xlink="http://www.w3.org/1999/xlink" width="1080" zoomAndPan="magnify" viewBox="0 0 810 809.999993" height="1080" preserveAspectRatio="xMidYMid meet" version="1.0"><defs><g/><clipPath id="098cd2c8be"><path d="M 402.9375 410.683594 L 447.9375 410.683594 L 447.9375 473 L 402.9375 473 Z M 402.9375 410.683594 " clip-rule="nonzero"/></clipPath><clipPath id="9f177e3716"><path d="M 404 464 L 446 464 L 446 484.933594 L 404 484.933594 Z M 404 464 " clip-rule="nonzero"/></clipPath><clipPath id="1711032888"><path d="M 574.769531 391.628906 L 603.257812 391.628906 L 603.257812 405 L 574.769531 405 Z M 574.769531 391.628906 " clip-rule="nonzero"/></clipPath><clipPath id="bd859f7995"><path d="M 577.015625 391.628906 L 601.222656 391.628906 C 601.820312 391.628906 602.390625 391.867188 602.8125 392.289062 C 603.234375 392.710938 603.472656 393.28125 603.472656 393.878906 L 603.472656 402.742188 C 603.472656 403.335938 603.234375 403.910156 602.8125 404.332031 C 602.390625 404.753906 601.820312 404.988281 601.222656 404.988281 L 577.015625 404.988281 C 576.421875 404.988281 575.847656 404.753906 575.425781 404.332031 C 575.003906 403.910156 574.769531 403.335938 574.769531 402.742188 L 574.769531 393.878906 C 574.769531 393.28125 575.003906 392.710938 575.425781 392.289062 C 575.847656 391.867188 576.421875 391.628906 577.015625 391.628906 Z M 577.015625 391.628906 " clip-rule="nonzero"/></clipPath><clipPath id="094c491820"><path d="M 555.433594 400.867188 L 622.933594 400.867188 L 622.933594 427.867188 L 555.433594 427.867188 Z M 555.433594 400.867188 " clip-rule="nonzero"/></clipPath><clipPath id="0bc0717b7b"><path d="M 557.683594 400.867188 L 620.554688 400.867188 C 621.148438 400.867188 621.722656 401.101562 622.144531 401.523438 C 622.566406 401.945312 622.804688 402.519531 622.804688 403.113281 L 622.804688 425.371094 C 622.804688 425.964844 622.566406 426.539062 622.144531 426.960938 C 621.722656 427.382812 621.148438 427.621094 620.554688 427.621094 L 557.683594 427.621094 C 557.085938 427.621094 556.515625 427.382812 556.09375 426.960938 C 555.671875 426.539062 555.433594 425.964844 555.433594 425.371094 L 555.433594 403.113281 C 555.433594 402.519531 555.671875 401.945312 556.09375 401.523438 C 556.515625 401.101562 557.085938 400.867188 557.683594 400.867188 Z M 557.683594 400.867188 " clip-rule="nonzero"/></clipPath></defs><rect x="-81" width="972" fill="#ffffff" y="-80.999999" height="971.999992" fill-opacity="1"/><rect x="-81" width="972" fill="#ffffff" y="-80.999999" height="971.999992" fill-opacity="1"/><g fill="#348aa7" fill-opacity="1"><g transform="translate(125.762092, 395.840009)"><g><path d="M 4.859375 -9.828125 C 3.210938 -11.859375 2.390625 -13.679688 2.390625 -15.296875 C 2.390625 -16.921875 3.753906 -19.066406 6.484375 -21.734375 C 8.066406 -23.265625 9.75 -24.03125 11.53125 -24.03125 C 13.3125 -24.03125 15.789062 -22.441406 18.96875 -19.265625 C 19.863281 -18.179688 21.132812 -17.144531 22.78125 -16.15625 C 24.4375 -15.175781 25.960938 -14.6875 27.359375 -14.6875 C 33.273438 -14.6875 36.234375 -17.097656 36.234375 -21.921875 C 36.234375 -23.390625 35.421875 -24.613281 33.796875 -25.59375 C 32.179688 -26.582031 30.164062 -27.296875 27.75 -27.734375 C 25.332031 -28.179688 22.722656 -28.898438 19.921875 -29.890625 C 17.128906 -30.878906 14.523438 -32.039062 12.109375 -33.375 C 9.691406 -34.707031 7.671875 -36.816406 6.046875 -39.703125 C 4.429688 -42.597656 3.625 -46.082031 3.625 -50.15625 C 3.625 -55.75 5.703125 -60.625 9.859375 -64.78125 C 14.023438 -68.945312 19.703125 -71.03125 26.890625 -71.03125 C 30.703125 -71.03125 34.179688 -70.535156 37.328125 -69.546875 C 40.472656 -68.566406 42.648438 -67.566406 43.859375 -66.546875 L 46.234375 -64.734375 C 48.210938 -62.890625 49.203125 -61.332031 49.203125 -60.0625 C 49.203125 -58.789062 48.4375 -57.046875 46.90625 -54.828125 C 44.75 -51.648438 42.523438 -50.0625 40.234375 -50.0625 C 38.898438 -50.0625 37.25 -50.695312 35.28125 -51.96875 C 35.082031 -52.09375 34.710938 -52.40625 34.171875 -52.90625 C 33.640625 -53.414062 33.148438 -53.832031 32.703125 -54.15625 C 31.367188 -54.976562 29.664062 -55.390625 27.59375 -55.390625 C 25.53125 -55.390625 23.816406 -54.894531 22.453125 -53.90625 C 21.085938 -52.925781 20.40625 -51.5625 20.40625 -49.8125 C 20.40625 -48.0625 21.210938 -46.644531 22.828125 -45.5625 C 24.453125 -44.488281 26.472656 -43.757812 28.890625 -43.375 C 31.304688 -43 33.941406 -42.410156 36.796875 -41.609375 C 39.660156 -40.816406 42.300781 -39.847656 44.71875 -38.703125 C 47.132812 -37.566406 49.148438 -35.582031 50.765625 -32.75 C 52.390625 -29.914062 53.203125 -26.429688 53.203125 -22.296875 C 53.203125 -18.171875 52.375 -14.535156 50.71875 -11.390625 C 49.070312 -8.242188 46.910156 -5.8125 44.234375 -4.09375 C 39.085938 -0.726562 33.59375 0.953125 27.75 0.953125 C 24.757812 0.953125 21.925781 0.585938 19.25 -0.140625 C 16.582031 -0.867188 14.425781 -1.773438 12.78125 -2.859375 C 9.40625 -4.890625 7.050781 -6.859375 5.71875 -8.765625 Z M 4.859375 -9.828125 "/></g></g></g><g fill="#348aa7" fill-opacity="1"><g transform="translate(181.347509, 395.840009)"><g><path d="M 20.6875 -16.875 L 50.0625 -16.875 C 51.519531 -16.875 52.613281 -16.828125 53.34375 -16.734375 C 54.070312 -16.640625 54.914062 -16.335938 55.875 -15.828125 C 57.59375 -14.941406 58.453125 -12.460938 58.453125 -8.390625 C 58.453125 -3.941406 57.273438 -1.335938 54.921875 -0.578125 C 53.835938 -0.191406 52.179688 0 49.953125 0 L 12.203125 0 C 7.753906 0 5.148438 -1.207031 4.390625 -3.625 C 4.003906 -4.644531 3.8125 -6.265625 3.8125 -8.484375 L 3.8125 -61.5 C 3.8125 -64.738281 4.414062 -66.945312 5.625 -68.125 C 6.832031 -69.300781 9.117188 -69.890625 12.484375 -69.890625 L 50.0625 -69.890625 C 51.519531 -69.890625 52.613281 -69.835938 53.34375 -69.734375 C 54.070312 -69.640625 54.914062 -69.34375 55.875 -68.84375 C 57.59375 -67.945312 58.453125 -65.46875 58.453125 -61.40625 C 58.453125 -56.957031 57.273438 -54.347656 54.921875 -53.578125 C 53.835938 -53.203125 52.179688 -53.015625 49.953125 -53.015625 L 20.6875 -53.015625 L 20.6875 -43.375 L 39.5625 -43.375 C 41.03125 -43.375 42.128906 -43.328125 42.859375 -43.234375 C 43.585938 -43.140625 44.429688 -42.835938 45.390625 -42.328125 C 47.097656 -41.441406 47.953125 -38.960938 47.953125 -34.890625 C 47.953125 -30.441406 46.742188 -27.835938 44.328125 -27.078125 C 43.253906 -26.691406 41.601562 -26.5 39.375 -26.5 L 20.6875 -26.5 Z M 20.6875 -16.875 "/></g></g></g><g fill="#348aa7" fill-opacity="1"><g transform="translate(242.176825, 395.840009)"><g><path d="M 48.953125 -66.96875 C 49.554688 -68.082031 50.460938 -68.832031 51.671875 -69.21875 C 52.878906 -69.601562 54.390625 -69.796875 56.203125 -69.796875 C 58.015625 -69.796875 59.476562 -69.632812 60.59375 -69.3125 C 61.707031 -69 62.53125 -68.617188 63.0625 -68.171875 C 63.601562 -67.722656 64.003906 -67.054688 64.265625 -66.171875 C 64.640625 -65.148438 64.828125 -63.53125 64.828125 -61.3125 L 64.828125 -8.390625 C 64.828125 -6.867188 64.78125 -5.753906 64.6875 -5.046875 C 64.59375 -4.347656 64.289062 -3.523438 63.78125 -2.578125 C 62.894531 -0.859375 60.414062 0 56.34375 0 C 53.863281 0 52.144531 -0.1875 51.1875 -0.5625 C 50.238281 -0.945312 49.445312 -1.554688 48.8125 -2.390625 C 34.507812 -21.453125 25.101562 -33.910156 20.59375 -39.765625 L 20.59375 -8.390625 C 20.59375 -6.867188 20.546875 -5.753906 20.453125 -5.046875 C 20.359375 -4.347656 20.054688 -3.523438 19.546875 -2.578125 C 18.648438 -0.859375 16.171875 0 12.109375 0 C 8.171875 0 5.753906 -0.859375 4.859375 -2.578125 C 4.347656 -3.523438 4.046875 -4.378906 3.953125 -5.140625 C 3.859375 -5.910156 3.8125 -7.023438 3.8125 -8.484375 L 3.8125 -61.6875 C 3.8125 -64.101562 4.113281 -65.863281 4.71875 -66.96875 C 5.320312 -68.082031 6.226562 -68.832031 7.4375 -69.21875 C 8.644531 -69.601562 10.203125 -69.796875 12.109375 -69.796875 C 14.015625 -69.796875 15.523438 -69.617188 16.640625 -69.265625 C 17.753906 -68.921875 18.53125 -68.523438 18.96875 -68.078125 C 19.226562 -67.890625 19.960938 -67.0625 21.171875 -65.59375 C 34.578125 -47.351562 43.535156 -35.3125 48.046875 -29.46875 L 48.046875 -61.6875 C 48.046875 -64.101562 48.347656 -65.863281 48.953125 -66.96875 Z M 48.953125 -66.96875 "/></g></g></g><g fill="#348aa7" fill-opacity="1"><g transform="translate(310.824332, 395.840009)"><g><path d="M 44.140625 -64.921875 L 69.890625 -11.734375 C 70.972656 -9.566406 71.515625 -7.941406 71.515625 -6.859375 C 71.515625 -4.578125 69.671875 -2.515625 65.984375 -0.671875 C 63.816406 0.410156 62.113281 0.953125 60.875 0.953125 C 59.632812 0.953125 58.617188 0.664062 57.828125 0.09375 C 57.035156 -0.476562 56.460938 -1.082031 56.109375 -1.71875 C 55.753906 -2.351562 55.257812 -3.304688 54.625 -4.578125 L 49.671875 -14.875 L 23.265625 -14.875 L 18.3125 -4.578125 C 17.675781 -3.304688 17.179688 -2.382812 16.828125 -1.8125 C 16.472656 -1.238281 15.898438 -0.648438 15.109375 -0.046875 C 14.316406 0.554688 13.300781 0.859375 12.0625 0.859375 C 10.820312 0.859375 9.117188 0.316406 6.953125 -0.765625 C 3.273438 -2.546875 1.4375 -4.578125 1.4375 -6.859375 C 1.4375 -7.941406 1.972656 -9.566406 3.046875 -11.734375 L 28.796875 -65.03125 C 29.492188 -66.488281 30.554688 -67.660156 31.984375 -68.546875 C 33.421875 -69.441406 34.929688 -69.890625 36.515625 -69.890625 C 39.953125 -69.890625 42.492188 -68.234375 44.140625 -64.921875 Z M 36.421875 -42.046875 L 30.125 -28.984375 L 42.8125 -28.984375 Z M 36.421875 -42.046875 "/></g></g></g><g fill="#348aa7" fill-opacity="1"><g transform="translate(383.762309, 395.840009)"><g><path d="M 48.953125 -66.96875 C 49.554688 -68.082031 50.460938 -68.832031 51.671875 -69.21875 C 52.878906 -69.601562 54.390625 -69.796875 56.203125 -69.796875 C 58.015625 -69.796875 59.476562 -69.632812 60.59375 -69.3125 C 61.707031 -69 62.53125 -68.617188 63.0625 -68.171875 C 63.601562 -67.722656 64.003906 -67.054688 64.265625 -66.171875 C 64.640625 -65.148438 64.828125 -63.53125 64.828125 -61.3125 L 64.828125 -8.390625 C 64.828125 -6.867188 64.78125 -5.753906 64.6875 -5.046875 C 64.59375 -4.347656 64.289062 -3.523438 63.78125 -2.578125 C 62.894531 -0.859375 60.414062 0 56.34375 0 C 53.863281 0 52.144531 -0.1875 51.1875 -0.5625 C 50.238281 -0.945312 49.445312 -1.554688 48.8125 -2.390625 C 34.507812 -21.453125 25.101562 -33.910156 20.59375 -39.765625 L 20.59375 -8.390625 C 20.59375 -6.867188 20.546875 -5.753906 20.453125 -5.046875 C 20.359375 -4.347656 20.054688 -3.523438 19.546875 -2.578125 C 18.648438 -0.859375 16.171875 0 12.109375 0 C 8.171875 0 5.753906 -0.859375 4.859375 -2.578125 C 4.347656 -3.523438 4.046875 -4.378906 3.953125 -5.140625 C 3.859375 -5.910156 3.8125 -7.023438 3.8125 -8.484375 L 3.8125 -61.6875 C 3.8125 -64.101562 4.113281 -65.863281 4.71875 -66.96875 C 5.320312 -68.082031 6.226562 -68.832031 7.4375 -69.21875 C 8.644531 -69.601562 10.203125 -69.796875 12.109375 -69.796875 C 14.015625 -69.796875 15.523438 -69.617188 16.640625 -69.265625 C 17.753906 -68.921875 18.53125 -68.523438 18.96875 -68.078125 C 19.226562 -67.890625 19.960938 -67.0625 21.171875 -65.59375 C 34.578125 -47.351562 43.535156 -35.3125 48.046875 -29.46875 L 48.046875 -61.6875 C 48.046875 -64.101562 48.347656 -65.863281 48.953125 -66.96875 Z M 48.953125 -66.96875 "/></g></g></g><g fill="#348aa7" fill-opacity="1"><g transform="translate(452.409827, 395.840009)"><g><path d="M 40.234375 -42.140625 L 57.015625 -42.140625 C 60.453125 -42.015625 62.550781 -41.125 63.3125 -39.46875 C 63.945312 -38.257812 64.265625 -36.484375 64.265625 -34.140625 L 64.265625 -13.15625 C 64.265625 -11.125 63.375 -9.1875 61.59375 -7.34375 C 56.25 -1.8125 48.238281 0.953125 37.5625 0.953125 C 28.09375 0.953125 19.863281 -2.617188 12.875 -9.765625 C 5.882812 -16.921875 2.390625 -25.550781 2.390625 -35.65625 C 2.390625 -45.757812 5.945312 -54.195312 13.0625 -60.96875 C 20.175781 -67.738281 28.566406 -71.125 38.234375 -71.125 C 45.734375 -71.125 52.820312 -68.644531 59.5 -63.6875 C 61.207031 -62.414062 62.0625 -61 62.0625 -59.4375 C 62.0625 -57.882812 61.332031 -56.09375 59.875 -54.0625 C 57.394531 -50.6875 55.140625 -49 53.109375 -49 C 51.898438 -49 49.957031 -49.875 47.28125 -51.625 C 44.613281 -53.375 41.4375 -54.25 37.75 -54.25 C 32.925781 -54.25 28.640625 -52.546875 24.890625 -49.140625 C 21.140625 -45.742188 19.265625 -41.296875 19.265625 -35.796875 C 19.265625 -30.296875 21.171875 -25.625 24.984375 -21.78125 C 28.796875 -17.9375 33.117188 -16.015625 37.953125 -16.015625 C 41.441406 -16.015625 44.585938 -16.585938 47.390625 -17.734375 L 47.390625 -28.125 L 39.859375 -28.125 C 37.878906 -28.125 36.476562 -28.378906 35.65625 -28.890625 C 34.832031 -29.398438 34.289062 -30.144531 34.03125 -31.125 C 33.78125 -32.113281 33.65625 -33.445312 33.65625 -35.125 C 33.65625 -36.8125 33.796875 -38.164062 34.078125 -39.1875 C 34.367188 -40.207031 34.894531 -40.90625 35.65625 -41.28125 C 36.800781 -41.851562 38.328125 -42.140625 40.234375 -42.140625 Z M 40.234375 -42.140625 "/></g></g></g><g fill="#348aa7" fill-opacity="1"><g transform="translate(125.762092, 482.090005)"><g><path d="M 53.578125 -37.46875 C 57.328125 -33.019531 59.203125 -28.03125 59.203125 -22.5 C 59.078125 -16.144531 56.898438 -10.820312 52.671875 -6.53125 C 48.453125 -2.238281 43.320312 -0.09375 37.28125 -0.09375 L 12.203125 -0.09375 C 7.753906 -0.09375 5.148438 -1.300781 4.390625 -3.71875 C 4.003906 -4.800781 3.8125 -6.453125 3.8125 -8.671875 L 3.8125 -61.59375 C 3.8125 -63.113281 3.859375 -64.222656 3.953125 -64.921875 C 4.046875 -65.628906 4.347656 -66.457031 4.859375 -67.40625 C 5.753906 -69.125 8.234375 -69.984375 12.296875 -69.984375 L 36.328125 -69.984375 C 42.171875 -69.984375 47.066406 -67.945312 51.015625 -63.875 C 55.140625 -59.75 57.203125 -54.789062 57.203125 -49 C 57.203125 -44.8125 55.992188 -40.96875 53.578125 -37.46875 Z M 42.328125 -23.453125 C 42.328125 -24.984375 42.148438 -26.191406 41.796875 -27.078125 C 41.453125 -27.960938 40.867188 -28.597656 40.046875 -28.984375 C 38.773438 -29.492188 36.992188 -29.75 34.703125 -29.75 C 32.410156 -29.75 30.691406 -30.191406 29.546875 -31.078125 C 28.410156 -31.972656 27.84375 -33.800781 27.84375 -36.5625 C 27.84375 -39.332031 28.429688 -41.160156 29.609375 -42.046875 C 30.785156 -42.929688 32.738281 -43.375 35.46875 -43.375 C 38.007812 -43.375 39.535156 -44.046875 40.046875 -45.390625 C 40.234375 -46.085938 40.328125 -47.226562 40.328125 -48.8125 C 40.328125 -50.40625 39.800781 -51.519531 38.75 -52.15625 C 37.707031 -52.789062 36.132812 -53.109375 34.03125 -53.109375 L 20.6875 -53.109375 L 20.6875 -16.96875 L 36.328125 -16.96875 C 40.328125 -16.96875 42.328125 -19.128906 42.328125 -23.453125 Z M 42.328125 -23.453125 "/></g></g></g><g fill="#348aa7" fill-opacity="1"><g transform="translate(187.354168, 482.090005)"><g><path d="M 20.6875 -16.875 L 50.0625 -16.875 C 51.519531 -16.875 52.613281 -16.828125 53.34375 -16.734375 C 54.070312 -16.640625 54.914062 -16.335938 55.875 -15.828125 C 57.59375 -14.941406 58.453125 -12.460938 58.453125 -8.390625 C 58.453125 -3.941406 57.273438 -1.335938 54.921875 -0.578125 C 53.835938 -0.191406 52.179688 0 49.953125 0 L 12.203125 0 C 7.753906 0 5.148438 -1.207031 4.390625 -3.625 C 4.003906 -4.644531 3.8125 -6.265625 3.8125 -8.484375 L 3.8125 -61.5 C 3.8125 -64.738281 4.414062 -66.945312 5.625 -68.125 C 6.832031 -69.300781 9.117188 -69.890625 12.484375 -69.890625 L 50.0625 -69.890625 C 51.519531 -69.890625 52.613281 -69.835938 53.34375 -69.734375 C 54.070312 -69.640625 54.914062 -69.34375 55.875 -68.84375 C 57.59375 -67.945312 58.453125 -65.46875 58.453125 -61.40625 C 58.453125 -56.957031 57.273438 -54.347656 54.921875 -53.578125 C 53.835938 -53.203125 52.179688 -53.015625 49.953125 -53.015625 L 20.6875 -53.015625 L 20.6875 -43.375 L 39.5625 -43.375 C 41.03125 -43.375 42.128906 -43.328125 42.859375 -43.234375 C 43.585938 -43.140625 44.429688 -42.835938 45.390625 -42.328125 C 47.097656 -41.441406 47.953125 -38.960938 47.953125 -34.890625 C 47.953125 -30.441406 46.742188 -27.835938 44.328125 -27.078125 C 43.253906 -26.691406 41.601562 -26.5 39.375 -26.5 L 20.6875 -26.5 Z M 20.6875 -16.875 "/></g></g></g><g fill="#348aa7" fill-opacity="1"><g transform="translate(248.183484, 482.090005)"><g><path d="M 57.296875 -11.828125 C 58.253906 -9.535156 58.734375 -7.878906 58.734375 -6.859375 C 58.734375 -4.441406 56.765625 -2.410156 52.828125 -0.765625 C 50.785156 0.128906 49.144531 0.578125 47.90625 0.578125 C 46.664062 0.578125 45.648438 0.273438 44.859375 -0.328125 C 44.066406 -0.929688 43.476562 -1.550781 43.09375 -2.1875 C 42.457031 -3.394531 39.976562 -9.148438 35.65625 -19.453125 L 32.703125 -19.265625 L 20.6875 -19.265625 L 20.6875 -8.484375 C 20.6875 -7.023438 20.640625 -5.925781 20.546875 -5.1875 C 20.453125 -4.457031 20.148438 -3.617188 19.640625 -2.671875 C 18.753906 -0.953125 16.273438 -0.09375 12.203125 -0.09375 C 7.753906 -0.09375 5.148438 -1.269531 4.390625 -3.625 C 4.003906 -4.707031 3.8125 -6.359375 3.8125 -8.578125 L 3.8125 -61.5 C 3.8125 -62.957031 3.859375 -64.050781 3.953125 -64.78125 C 4.046875 -65.507812 4.347656 -66.351562 4.859375 -67.3125 C 5.753906 -69.03125 8.234375 -69.890625 12.296875 -69.890625 L 32.890625 -69.890625 C 38.484375 -69.890625 43.921875 -67.851562 49.203125 -63.78125 C 51.742188 -61.8125 53.835938 -59.140625 55.484375 -55.765625 C 57.140625 -52.398438 57.96875 -48.65625 57.96875 -44.53125 C 57.96875 -37.34375 55.582031 -31.429688 50.8125 -26.796875 C 52.21875 -23.421875 54.378906 -18.429688 57.296875 -11.828125 Z M 20.6875 -36.140625 L 32.890625 -36.140625 C 34.734375 -36.140625 36.578125 -36.835938 38.421875 -38.234375 C 40.265625 -39.628906 41.1875 -41.722656 41.1875 -44.515625 C 41.1875 -47.316406 40.265625 -49.429688 38.421875 -50.859375 C 36.578125 -52.296875 34.671875 -53.015625 32.703125 -53.015625 L 20.6875 -53.015625 Z M 20.6875 -36.140625 "/></g></g></g><g fill="#348aa7" fill-opacity="1"><g transform="translate(305.484976, 482.090005)"><g><path d="M 87.4375 -69.5 C 91.6875 -67.976562 93.8125 -65.945312 93.8125 -63.40625 C 93.8125 -62.582031 93.429688 -61.023438 92.671875 -58.734375 L 74.375 -5.8125 C 74.238281 -5.375 74.007812 -4.832031 73.6875 -4.1875 C 73.375 -3.550781 72.535156 -2.707031 71.171875 -1.65625 C 69.804688 -0.613281 68.1875 -0.09375 66.3125 -0.09375 C 64.4375 -0.09375 62.816406 -0.613281 61.453125 -1.65625 C 60.085938 -2.707031 59.179688 -3.742188 58.734375 -4.765625 L 47.578125 -37.65625 C 40.523438 -16.8125 36.929688 -6.195312 36.796875 -5.8125 C 36.671875 -5.4375 36.382812 -4.894531 35.9375 -4.1875 C 35.5 -3.488281 34.992188 -2.851562 34.421875 -2.28125 C 32.953125 -0.820312 31.203125 -0.09375 29.171875 -0.09375 C 27.140625 -0.09375 25.472656 -0.566406 24.171875 -1.515625 C 22.867188 -2.472656 21.992188 -3.429688 21.546875 -4.390625 L 20.875 -5.8125 L 2.484375 -58.734375 C 1.785156 -60.828125 1.4375 -62.382812 1.4375 -63.40625 C 1.4375 -65.945312 3.5625 -67.945312 7.8125 -69.40625 C 9.65625 -70.039062 11.320312 -70.359375 12.8125 -70.359375 C 14.3125 -70.359375 15.457031 -69.847656 16.25 -68.828125 C 17.050781 -67.816406 17.769531 -66.265625 18.40625 -64.171875 L 28.890625 -32.328125 L 39.28125 -63.6875 C 40.164062 -66.351562 41.785156 -68.195312 44.140625 -69.21875 C 45.160156 -69.664062 46.476562 -69.890625 48.09375 -69.890625 C 49.71875 -69.890625 51.226562 -69.363281 52.625 -68.3125 C 54.03125 -67.257812 54.921875 -66.226562 55.296875 -65.21875 L 66.265625 -32.125 L 76.75 -64.171875 C 77.257812 -65.628906 77.671875 -66.707031 77.984375 -67.40625 C 78.304688 -68.101562 78.894531 -68.785156 79.75 -69.453125 C 80.613281 -70.117188 81.679688 -70.453125 82.953125 -70.453125 C 84.222656 -70.453125 85.71875 -70.132812 87.4375 -69.5 Z M 87.4375 -69.5 "/></g></g></g><g fill="#348aa7" fill-opacity="1"><g transform="translate(400.742551, 482.090005)"><g/></g></g><g fill="#348aa7" fill-opacity="1"><g transform="translate(424.864521, 482.090005)"><g/></g></g><g fill="#348aa7" fill-opacity="1"><g transform="translate(448.988639, 482.090005)"><g><path d="M 4.859375 -9.828125 C 3.210938 -11.859375 2.390625 -13.679688 2.390625 -15.296875 C 2.390625 -16.921875 3.753906 -19.066406 6.484375 -21.734375 C 8.066406 -23.265625 9.75 -24.03125 11.53125 -24.03125 C 13.3125 -24.03125 15.789062 -22.441406 18.96875 -19.265625 C 19.863281 -18.179688 21.132812 -17.144531 22.78125 -16.15625 C 24.4375 -15.175781 25.960938 -14.6875 27.359375 -14.6875 C 33.273438 -14.6875 36.234375 -17.097656 36.234375 -21.921875 C 36.234375 -23.390625 35.421875 -24.613281 33.796875 -25.59375 C 32.179688 -26.582031 30.164062 -27.296875 27.75 -27.734375 C 25.332031 -28.179688 22.722656 -28.898438 19.921875 -29.890625 C 17.128906 -30.878906 14.523438 -32.039062 12.109375 -33.375 C 9.691406 -34.707031 7.671875 -36.816406 6.046875 -39.703125 C 4.429688 -42.597656 3.625 -46.082031 3.625 -50.15625 C 3.625 -55.75 5.703125 -60.625 9.859375 -64.78125 C 14.023438 -68.945312 19.703125 -71.03125 26.890625 -71.03125 C 30.703125 -71.03125 34.179688 -70.535156 37.328125 -69.546875 C 40.472656 -68.566406 42.648438 -67.566406 43.859375 -66.546875 L 46.234375 -64.734375 C 48.210938 -62.890625 49.203125 -61.332031 49.203125 -60.0625 C 49.203125 -58.789062 48.4375 -57.046875 46.90625 -54.828125 C 44.75 -51.648438 42.523438 -50.0625 40.234375 -50.0625 C 38.898438 -50.0625 37.25 -50.695312 35.28125 -51.96875 C 35.082031 -52.09375 34.710938 -52.40625 34.171875 -52.90625 C 33.640625 -53.414062 33.148438 -53.832031 32.703125 -54.15625 C 31.367188 -54.976562 29.664062 -55.390625 27.59375 -55.390625 C 25.53125 -55.390625 23.816406 -54.894531 22.453125 -53.90625 C 21.085938 -52.925781 20.40625 -51.5625 20.40625 -49.8125 C 20.40625 -48.0625 21.210938 -46.644531 22.828125 -45.5625 C 24.453125 -44.488281 26.472656 -43.757812 28.890625 -43.375 C 31.304688 -43 33.941406 -42.410156 36.796875 -41.609375 C 39.660156 -40.816406 42.300781 -39.847656 44.71875 -38.703125 C 47.132812 -37.566406 49.148438 -35.582031 50.765625 -32.75 C 52.390625 -29.914062 53.203125 -26.429688 53.203125 -22.296875 C 53.203125 -18.171875 52.375 -14.535156 50.71875 -11.390625 C 49.070312 -8.242188 46.910156 -5.8125 44.234375 -4.09375 C 39.085938 -0.726562 33.59375 0.953125 27.75 0.953125 C 24.757812 0.953125 21.925781 0.585938 19.25 -0.140625 C 16.582031 -0.867188 14.425781 -1.773438 12.78125 -2.859375 C 9.40625 -4.890625 7.050781 -6.859375 5.71875 -8.765625 Z M 4.859375 -9.828125 "/></g></g></g><g fill="#348aa7" fill-opacity="1"><g transform="translate(500.760151, 482.090005)"><g><path d="M 44.140625 -64.921875 L 69.890625 -11.734375 C 70.972656 -9.566406 71.515625 -7.941406 71.515625 -6.859375 C 71.515625 -4.578125 69.671875 -2.515625 65.984375 -0.671875 C 63.816406 0.410156 62.113281 0.953125 60.875 0.953125 C 59.632812 0.953125 58.617188 0.664062 57.828125 0.09375 C 57.035156 -0.476562 56.460938 -1.082031 56.109375 -1.71875 C 55.753906 -2.351562 55.257812 -3.304688 54.625 -4.578125 L 49.671875 -14.875 L 23.265625 -14.875 L 18.3125 -4.578125 C 17.675781 -3.304688 17.179688 -2.382812 16.828125 -1.8125 C 16.472656 -1.238281 15.898438 -0.648438 15.109375 -0.046875 C 14.316406 0.554688 13.300781 0.859375 12.0625 0.859375 C 10.820312 0.859375 9.117188 0.316406 6.953125 -0.765625 C 3.273438 -2.546875 1.4375 -4.578125 1.4375 -6.859375 C 1.4375 -7.941406 1.972656 -9.566406 3.046875 -11.734375 L 28.796875 -65.03125 C 29.492188 -66.488281 30.554688 -67.660156 31.984375 -68.546875 C 33.421875 -69.441406 34.929688 -69.890625 36.515625 -69.890625 C 39.953125 -69.890625 42.492188 -68.234375 44.140625 -64.921875 Z M 36.421875 -42.046875 L 30.125 -28.984375 L 42.8125 -28.984375 Z M 36.421875 -42.046875 "/></g></g></g><g clip-path="url(#098cd2c8be)"><path fill="#348aa7" d="M 425.414062 414.375 C 435.804688 414.375 444.257812 422.824219 444.257812 433.214844 C 444.257812 441.378906 431.753906 459.160156 425.414062 467.316406 C 419.078125 459.160156 406.574219 441.378906 406.574219 433.214844 C 406.574219 422.824219 415.027344 414.375 425.414062 414.375 Z M 425.414062 472.0625 C 425.960938 472.0625 426.484375 471.816406 426.828125 471.386719 C 427.6875 470.320312 447.890625 445.128906 447.890625 433.214844 C 447.890625 420.820312 437.808594 410.742188 425.414062 410.742188 C 413.023438 410.742188 402.941406 420.820312 402.941406 433.214844 C 402.941406 445.128906 423.140625 470.320312 424 471.386719 C 424.34375 471.816406 424.867188 472.0625 425.414062 472.0625 " fill-opacity="1" fill-rule="nonzero"/></g><path fill="#348aa7" d="M 425.410156 434.339844 C 421.707031 434.339844 418.691406 431.324219 418.691406 427.617188 C 418.691406 423.914062 421.707031 420.898438 425.410156 420.898438 C 429.117188 420.898438 432.132812 423.914062 432.132812 427.617188 C 432.132812 431.324219 429.117188 434.339844 425.410156 434.339844 Z M 435.765625 427.617188 C 435.765625 421.910156 431.121094 417.265625 425.410156 417.265625 C 419.707031 417.265625 415.058594 421.910156 415.058594 427.617188 C 415.058594 433.328125 419.707031 437.972656 425.410156 437.972656 C 431.121094 437.972656 435.765625 433.328125 435.765625 427.617188 " fill-opacity="1" fill-rule="nonzero"/><g clip-path="url(#9f177e3716)"><path fill="#348aa7" d="M 438.71875 464.347656 C 437.8125 463.914062 436.730469 464.308594 436.300781 465.210938 C 435.871094 466.117188 436.257812 467.199219 437.164062 467.628906 C 440.46875 469.195312 442.367188 471.277344 442.367188 473.34375 C 442.367188 477.164062 435.402344 481.421875 425.414062 481.421875 C 415.425781 481.421875 408.464844 477.164062 408.464844 473.34375 C 408.464844 471.277344 410.359375 469.195312 413.667969 467.628906 C 414.574219 467.199219 414.960938 466.117188 414.53125 465.210938 C 414.101562 464.304688 413.015625 463.914062 412.109375 464.347656 C 407.484375 466.539062 404.832031 469.816406 404.832031 473.34375 C 404.832031 479.910156 413.871094 485.054688 425.414062 485.054688 C 436.957031 485.054688 446 479.910156 446 473.34375 C 446 469.816406 443.347656 466.539062 438.71875 464.347656 " fill-opacity="1" fill-rule="nonzero"/></g><g clip-path="url(#1711032888)"><g clip-path="url(#bd859f7995)"><path stroke-linecap="butt" transform="matrix(0.75, 0, 0, 0.75, 574.768871, 391.629727)" fill="none" stroke-linejoin="miter" d="M 2.995673 -0.001095 L 35.271718 -0.001095 C 36.068593 -0.001095 36.82901 0.316613 37.39151 0.879113 C 37.95401 1.441614 38.271719 2.20203 38.271719 2.998905 L 38.271719 14.816615 C 38.271719 15.608282 37.95401 16.373907 37.39151 16.936407 C 36.82901 17.498907 36.068593 17.811407 35.271718 17.811407 L 2.995673 17.811407 C 2.204006 17.811407 1.438381 17.498907 0.875881 16.936407 C 0.313381 16.373907 0.000880888 15.608282 0.000880888 14.816615 L 0.000880888 2.998905 C 0.000880888 2.20203 0.313381 1.441614 0.875881 0.879113 C 1.438381 0.316613 2.204006 -0.001095 2.995673 -0.001095 Z M 2.995673 -0.001095 " stroke="#348aa7" stroke-width="10" stroke-opacity="1" stroke-miterlimit="4"/></g></g><g clip-path="url(#094c491820)"><g clip-path="url(#0bc0717b7b)"><path stroke-linecap="butt" transform="matrix(0.75, 0, 0, 0.75, 555.433464, 400.865244)" fill="none" stroke-linejoin="miter" d="M 3.000174 0.00259156 L 86.828303 0.00259156 C 87.61997 0.00259156 88.385595 0.315092 88.948095 0.877592 C 89.510595 1.440092 89.828303 2.205717 89.828303 2.997383 L 89.828303 32.674468 C 89.828303 33.466135 89.510595 34.23176 88.948095 34.79426 C 88.385595 35.35676 87.61997 35.674468 86.828303 35.674468 L 3.000174 35.674468 C 2.203299 35.674468 1.442882 35.35676 0.880382 34.79426 C 0.317882 34.23176 0.000173591 33.466135 0.000173591 32.674468 L 0.000173591 2.997383 C 0.000173591 2.205717 0.317882 1.440092 0.880382 0.877592 C 1.442882 0.315092 2.203299 0.00259156 3.000174 0.00259156 Z M 3.000174 0.00259156 " stroke="#348aa7" stroke-width="12" stroke-opacity="1" stroke-miterlimit="4"/></g></g><g fill="#348aa7" fill-opacity="1"><g transform="translate(604.984077, 482.032532)"><g><path d="M 44.140625 -64.921875 L 69.890625 -11.734375 C 70.972656 -9.566406 71.515625 -7.941406 71.515625 -6.859375 C 71.515625 -4.578125 69.671875 -2.515625 65.984375 -0.671875 C 63.816406 0.410156 62.113281 0.953125 60.875 0.953125 C 59.632812 0.953125 58.617188 0.664062 57.828125 0.09375 C 57.035156 -0.476562 56.460938 -1.082031 56.109375 -1.71875 C 55.753906 -2.351562 55.257812 -3.304688 54.625 -4.578125 L 49.671875 -14.875 L 23.265625 -14.875 L 18.3125 -4.578125 C 17.675781 -3.304688 17.179688 -2.382812 16.828125 -1.8125 C 16.472656 -1.238281 15.898438 -0.648438 15.109375 -0.046875 C 14.316406 0.554688 13.300781 0.859375 12.0625 0.859375 C 10.820312 0.859375 9.117188 0.316406 6.953125 -0.765625 C 3.273438 -2.546875 1.4375 -4.578125 1.4375 -6.859375 C 1.4375 -7.941406 1.972656 -9.566406 3.046875 -11.734375 L 28.796875 -65.03125 C 29.492188 -66.488281 30.554688 -67.660156 31.984375 -68.546875 C 33.421875 -69.441406 34.929688 -69.890625 36.515625 -69.890625 C 39.953125 -69.890625 42.492188 -68.234375 44.140625 -64.921875 Z M 36.421875 -42.046875 L 30.125 -28.984375 L 42.8125 -28.984375 Z M 36.421875 -42.046875 "/></g></g></g><path stroke-linecap="round" transform="matrix(0, -0.75, 0.75, 0, 579.744406, 485.131244)" fill="none" stroke-linejoin="miter" d="M 12.497909 12.502251 L 67.87812 12.502251 " stroke="#348aa7" stroke-width="25" stroke-opacity="1" stroke-miterlimit="4"/><path stroke-linecap="butt" transform="matrix(0, -0.75, 0.75, 0, 579.741718, 464.626149)" fill="none" stroke-linejoin="miter" d="M 0.0015315 12.500626 L 53.043201 12.500626 " stroke="#348aa7" stroke-width="25" stroke-opacity="1" stroke-miterlimit="4"/></svg>